# xmcd
# 
# Track frame offsets:
#     182
#     31052
#     50085
#     77877
#     92732
#     140300
#     166977
# 
# Disc length: 2556
# 
# Revision: 29
# Processed by: cddbd v1.5.2PL0 Copyright (c) Steve Scherf et al.
# Submitted via: fre:ac v1.0.17
# 
DISCID=5209fa07
DTITLE=Led Zeppelin - In Through The Out Door (1979)
DYEAR=1979
DGENRE=Rock
TTITLE0=In The Evening
TTITLE1=South Bound Saurez
TTITLE2=Fool In The Rain
TTITLE3=Hot Dog
TTITLE4=Carouselambra
TTITLE5=All My Love
TTITLE6=I'm Gonna Crawl
EXTD=
EXTT0=
EXTT1=
EXTT2=
EXTT3=
EXTT4=
EXTT5=
EXTT6=
PLAYORDER=
